<svg xmlns="http://www.w3.org/2000/svg" version="1.1" xmlns:xlink="http://www.w3.org/1999/xlink" xmlns:svgjs="http://svgjs.com/svgjs" width="1200" height="697" preserveAspectRatio="none" viewBox="0 0 1200 697"><g mask="url(&quot;#SvgjsMask1015&quot;)" fill="none"><rect width="1200" height="697" x="0" y="0" fill="rgba(21, 30, 59, 1)"></rect><path d="M1220 697L0 697 L0 400.74Q53.24 393.98, 60 447.22Q106.38 433.6, 120 479.98Q127.77 427.75, 180 435.53Q197.65 393.18, 240 410.83Q314.14 384.97, 340 459.11Q375.26 434.37, 400 469.63Q458.17 427.8, 500 485.97Q500.31 386.29, 600 386.6Q667.35 353.95, 700 421.29Q785.53 406.82, 800 492.35Q808.08 440.44, 860 448.52Q872.46 400.98, 920 413.44Q981.69 375.13, 1020 436.82Q1079.65 396.47, 1120 456.12Q1178.7 414.82, 1220 473.53z" fill="#182f5d"></path><path d="M1280 697L0 697 L0 501.36Q59.5 460.86, 100 520.36Q161.96 482.32, 200 544.28Q207.75 492.02, 260 499.77Q316.15 455.92, 360 512.07Q399.53 491.6, 420 531.13Q477.27 488.4, 520 545.68Q534.91 500.59, 580 515.5Q593.54 469.04, 640 482.58Q678.68 461.26, 700 499.95Q731.03 430.98, 800 462Q862.26 424.26, 900 486.52Q959.95 446.47, 1000 506.41Q1051.16 497.57, 1060 548.73Q1077.23 505.97, 1120 523.2Q1124.35 467.55, 1180 471.89Q1242.03 433.92, 1280 495.96z" fill="#25467d"></path><path d="M1280 697L0 697 L0 580.29Q63.25 583.54, 60 646.79Q46.22 573, 120 559.22Q164.83 504.05, 220 548.88Q268.66 537.54, 280 586.2Q324.34 530.54, 380 574.87Q465.9 560.77, 480 646.67Q491.5 598.17, 540 609.68Q582.14 551.82, 640 593.96Q650.86 544.82, 700 555.67Q759.18 514.85, 800 574.02Q840.97 554.99, 860 595.95Q865.66 541.61, 920 547.27Q1000.25 527.52, 1020 607.78Q1066.03 593.81, 1080 639.84Q1119.25 579.09, 1180 618.34Q1213.74 552.08, 1280 585.82z" fill="#356cb1"></path><path d="M1300 697L0 697 L0 668.31Q36.39 644.7, 60 681.1Q72.2 633.3, 120 645.49Q156.33 621.82, 180 658.14Q254.06 632.2, 280 706.27Q312.62 638.88, 380 671.5Q398.65 630.15, 440 648.81Q486.66 635.47, 500 682.13Q524.76 646.89, 560 671.65Q628.75 640.4, 660 709.15Q674.47 623.62, 760 638.08Q784.38 602.47, 820 626.85Q867.47 614.32, 880 661.78Q954.88 636.66, 980 711.55Q999.59 671.13, 1040 690.72Q1045.48 636.2, 1100 641.68Q1141.64 583.32, 1200 624.95Q1281.15 606.11, 1300 687.26z" fill="white"></path></g><defs><mask id="SvgjsMask1015"><rect width="1200" height="697" fill="#ffffff"></rect></mask></defs></svg>